<svg width="930" height="630" viewBox="0 0 930 630" fill="none" xmlns="http://www.w3.org/2000/svg">
<path d="M0 380C0 352.386 22.3858 330 50 330H250C277.614 330 300 352.386 300 380V580C300 607.614 277.614 630 250 630H50C22.3858 630 0 607.614 0 580V380Z" fill="url(#paint0_linear)" fill-opacity="0.3"/>
<path fill-rule="evenodd" clip-rule="evenodd" d="M40.2419 629.048L42.1826 619.238C44.7029 619.737 47.3158 620 50 620H60V630H50C46.6607 630 43.3979 629.673 40.2419 629.048ZM240 630V620H250C252.684 620 255.297 619.737 257.817 619.238L259.758 629.048C256.602 629.673 253.339 630 250 630H240ZM277.781 621.578L272.218 613.269C276.584 610.345 280.345 606.584 283.269 602.218L291.578 607.781C287.928 613.233 283.233 617.928 277.781 621.578ZM300 390H290V380C290 377.316 289.737 374.703 289.238 372.183L299.048 370.242C299.673 373.398 300 376.661 300 380V390ZM291.578 352.219L283.269 357.782C280.345 353.416 276.584 349.655 272.218 346.731L277.781 338.422C283.233 342.072 287.928 346.767 291.578 352.219ZM60 330H50C46.6607 330 43.3979 330.327 40.2419 330.952L42.1826 340.762C44.7029 340.263 47.3158 340 50 340H60V330ZM22.2192 338.422L27.7824 346.731C23.416 349.655 19.6546 353.416 16.7314 357.782L8.42173 352.219C12.0721 346.767 16.7666 342.072 22.2192 338.422ZM0 570H10V580C10 582.684 10.263 585.297 10.7616 587.817L0.951704 589.758C0.327348 586.602 0 583.339 0 580V570ZM8.42173 607.781L16.7314 602.218C19.6546 606.584 23.416 610.345 27.7824 613.269L22.2192 621.578C16.7667 617.928 12.0721 613.233 8.42173 607.781ZM0 550H10V530H0V550ZM0 510H10V490H0V510ZM0 470H10V450H0V470ZM0 430H10V410H0V430ZM0 390H10V380C10 377.316 10.263 374.703 10.7616 372.183L0.951702 370.242C0.327347 373.398 0 376.661 0 380V390ZM80 330V340H100V330H80ZM120 330V340H140V330H120ZM160 330V340H180V330H160ZM200 330V340H220V330H200ZM240 330V340H250C252.684 340 255.297 340.263 257.817 340.762L259.758 330.952C256.602 330.327 253.339 330 250 330H240ZM300 410H290V430H300V410ZM300 450H290V470H300V450ZM300 490H290V510H300V490ZM300 530H290V550H300V530ZM300 570H290V580C290 582.684 289.737 585.297 289.238 587.817L299.048 589.758C299.673 586.602 300 583.339 300 580V570ZM220 630V620H200V630H220ZM180 630V620H160V630H180ZM140 630V620H120V630H140ZM100 630V620H80V630H100Z" fill="#41B883" fill-opacity="0.7"/>
<rect x="630" width="300" height="300" rx="50" fill="url(#paint1_linear)"/>
<path d="M330 380C330 352.386 352.386 330 380 330H880C907.614 330 930 352.386 930 380V580C930 607.614 907.614 630 880 630H380C352.386 630 330 607.614 330 580V380Z" fill="url(#paint2_linear)" fill-opacity="0.3"/>
<path fill-rule="evenodd" clip-rule="evenodd" d="M370.242 629.048L372.183 619.238C374.703 619.737 377.316 620 380 620H389.615V630H380C376.661 630 373.398 629.673 370.242 629.048ZM870.385 630V620H880C882.684 620 885.297 619.737 887.817 619.238L889.758 629.048C886.602 629.673 883.339 630 880 630H870.385ZM907.781 621.578L902.218 613.269C906.584 610.345 910.345 606.584 913.269 602.218L921.578 607.781C917.928 613.233 913.233 617.928 907.781 621.578ZM930 390H920V380C920 377.316 919.737 374.703 919.238 372.183L929.048 370.242C929.673 373.398 930 376.661 930 380V390ZM921.578 352.219L913.269 357.782C910.345 353.416 906.584 349.655 902.218 346.731L907.781 338.422C913.233 342.072 917.928 346.767 921.578 352.219ZM389.615 330H380C376.661 330 373.398 330.327 370.242 330.952L372.183 340.762C374.703 340.263 377.316 340 380 340H389.615V330ZM352.219 338.422L357.782 346.731C353.416 349.655 349.655 353.416 346.731 357.782L338.422 352.219C342.072 346.767 346.767 342.072 352.219 338.422ZM330 570H340V580C340 582.684 340.263 585.297 340.762 587.817L330.952 589.758C330.327 586.602 330 583.339 330 580V570ZM338.422 607.781L346.731 602.218C349.655 606.584 353.416 610.345 357.782 613.269L352.219 621.578C346.767 617.928 342.072 613.233 338.422 607.781ZM330 550H340V530H330V550ZM330 510H340V490H330V510ZM330 470H340V450H330V470ZM330 430H340V410H330V430ZM330 390H340V380C340 377.316 340.263 374.703 340.762 372.183L330.952 370.242C330.327 373.398 330 376.661 330 380V390ZM408.846 330V340H428.077V330H408.846ZM447.308 330V340H466.538V330H447.308ZM485.769 330V340H505V330H485.769ZM524.231 330V340H543.462V330H524.231ZM562.692 330V340H581.923V330H562.692ZM601.154 330V340H620.385V330H601.154ZM639.615 330V340H658.846V330H639.615ZM678.077 330V340H697.308V330H678.077ZM716.539 330V340H735.769V330H716.539ZM755 330V340H774.231V330H755ZM793.462 330V340H812.692V330H793.462ZM831.923 330V340H851.154V330H831.923ZM870.385 330V340H880C882.684 340 885.297 340.263 887.817 340.762L889.758 330.952C886.602 330.327 883.339 330 880 330H870.385ZM930 410H920V430H930V410ZM930 450H920V470H930V450ZM930 490H920V510H930V490ZM930 530H920V550H930V530ZM930 570H920V580C920 582.684 919.737 585.297 919.238 587.817L929.048 589.758C929.673 586.602 930 583.339 930 580V570ZM851.154 630V620H831.923V630H851.154ZM812.692 630V620H793.462V630H812.692ZM774.231 630V620H755V630H774.231ZM735.769 630V620H716.538V630H735.769ZM697.308 630V620H678.077V630H697.308ZM658.846 630V620H639.615V630H658.846ZM620.385 630V620H601.154V630H620.385ZM581.923 630V620H562.692V630H581.923ZM543.461 630V620H524.231V630H543.461ZM505 630V620H485.769V630H505ZM466.538 630V620H447.308V630H466.538ZM428.077 630V620H408.846V630H428.077Z" fill="#35495E" fill-opacity="0.7"/>
<path d="M0 50C0 22.3858 22.3858 0 50 0H550C577.614 0 600 22.3858 600 50V250C600 277.614 577.614 300 550 300H50C22.3858 300 0 277.614 0 250V50Z" fill="url(#paint3_linear)"/>
<mask id="mask0" style="mask-type:alpha" maskUnits="userSpaceOnUse" x="630" y="0" width="300" height="300">
<rect x="630" width="300" height="300" rx="50" fill="url(#paint4_linear)"/>
</mask>
<g mask="url(#mask0)">
<path opacity="0.3" d="M690 169C690 163.477 694.477 159 700 159H720C725.523 159 730 163.477 730 169V300H690V169Z" fill="white"/>
<path opacity="0.3" d="M760 98C760 92.4772 764.477 88 770 88H790C795.523 88 800 92.4772 800 98V300H760V98Z" fill="white"/>
<path opacity="0.3" d="M830 152C830 146.477 834.477 142 840 142H860C865.523 142 870 146.477 870 152V300H830V152Z" fill="white"/>
</g>
<mask id="mask1" style="mask-type:alpha" maskUnits="userSpaceOnUse" x="0" y="0" width="600" height="300">
<path d="M0 50C0 22.3858 22.3858 0 50 0H550C577.614 0 600 22.3858 600 50V250C600 277.614 577.614 300 550 300H50C22.3858 300 0 277.614 0 250V50Z" fill="url(#paint5_linear)"/>
</mask>
<g mask="url(#mask1)">
<path d="M143 198C87 266.8 23.6667 208.667 -0.5 170.5V300.5H600V77.5C582 54.6667 530.8 19.7001 472 130.5C413.2 241.3 334.333 185.167 295.5 156.5C267.667 140.333 199 129.2 143 198Z" fill="white" fill-opacity="0.3"/>
<circle cx="465" cy="139" r="15" fill="white"/>
</g>
<defs>
<linearGradient id="paint0_linear" x1="271.534" y1="671.698" x2="101.075" y2="250.83" gradientUnits="userSpaceOnUse">
<stop stop-color="#2B8670"/>
<stop offset="0.541667" stop-color="#6BB68A"/>
<stop offset="1" stop-color="#93D4AE"/>
</linearGradient>
<linearGradient id="paint1_linear" x1="901.534" y1="341.698" x2="731.075" y2="-79.1698" gradientUnits="userSpaceOnUse">
<stop stop-color="#455264"/>
<stop offset="0.333333" stop-color="#455264"/>
<stop offset="1" stop-color="#798392"/>
</linearGradient>
<linearGradient id="paint2_linear" x1="873.069" y1="671.698" x2="777.766" y2="201.09" gradientUnits="userSpaceOnUse">
<stop stop-color="#455264"/>
<stop offset="0.333333" stop-color="#455264"/>
<stop offset="1" stop-color="#798392"/>
</linearGradient>
<linearGradient id="paint3_linear" x1="543.069" y1="341.698" x2="447.766" y2="-128.91" gradientUnits="userSpaceOnUse">
<stop stop-color="#2B8670"/>
<stop offset="0.541667" stop-color="#6BB68A"/>
<stop offset="1" stop-color="#93D4AE"/>
</linearGradient>
<linearGradient id="paint4_linear" x1="901.534" y1="341.698" x2="731.075" y2="-79.1698" gradientUnits="userSpaceOnUse">
<stop stop-color="#455264"/>
<stop offset="0.333333" stop-color="#455264"/>
<stop offset="1" stop-color="#798392"/>
</linearGradient>
<linearGradient id="paint5_linear" x1="543.069" y1="341.698" x2="447.766" y2="-128.91" gradientUnits="userSpaceOnUse">
<stop stop-color="#2B8670"/>
<stop offset="0.541667" stop-color="#6BB68A"/>
<stop offset="1" stop-color="#93D4AE"/>
</linearGradient>
</defs>
</svg>
